<svg width="60" height="60" viewBox="0 0 60 60" fill="none" xmlns="http://www.w3.org/2000/svg">
<path d="M36.475 6.475C35.525 5.525 34.25 5 32.925 5H15C12.25 5 10 7.25 10 10V50C10 52.75 12.225 55 14.975 55H45C47.75 55 50 52.75 50 50V22.075C50 20.75 49.475 19.475 48.525 18.55L36.475 6.475ZM37.5 45H22.5C21.125 45 20 43.875 20 42.5C20 41.125 21.125 40 22.5 40H37.5C38.875 40 40 41.125 40 42.5C40 43.875 38.875 45 37.5 45ZM37.5 35H22.5C21.125 35 20 33.875 20 32.5C20 31.125 21.125 30 22.5 30H37.5C38.875 30 40 31.125 40 32.5C40 33.875 38.875 35 37.5 35ZM32.5 20V8.75L46.25 22.5H35C33.625 22.5 32.5 21.375 32.5 20Z" fill="black"/>
</svg>
