<svg width="75" height="73" viewBox="0 0 75 73" fill="none" xmlns="http://www.w3.org/2000/svg">
<path d="M52.1463 1.52042L55.4469 2.41206C55.8696 2.52857 56.1648 2.98643 56.094 3.41516L55.5876 6.44303C56.1762 6.94637 56.6229 7.65934 56.8254 8.33779C57.3516 6.74047 58.3203 5.47328 59.376 4.42754C60.7089 3.10732 62.1915 2.4782 63.549 2.38419C64.8576 2.29357 66.0471 2.70206 66.8592 3.45229C67.7646 3.08008 68.8365 2.77933 69.7005 2.78356C70.4994 2.79519 71.3409 3.05331 71.979 3.66594C72.4383 4.30206 72.6537 5.19395 72.5886 5.86718C72.5136 6.55857 72.2634 7.21224 71.9229 7.84554C71.2419 9.11207 70.2075 10.3158 69.2784 11.3564C67.7178 13.1044 65.5668 13.7602 63.2583 13.8548C63.9021 14.0908 64.4685 14.4741 64.9275 14.9879C65.9109 16.089 66.4476 17.6913 66.606 19.5577C66.6642 21.1302 66.7428 22.7565 66.4464 24.0995C66.153 25.3714 65.5554 26.5188 64.4868 27.1274C64.2201 27.8649 63.8217 28.3393 63.0144 28.5391C63.1989 28.1738 63.2631 27.8085 63.2208 27.4432C62.0205 27.5027 60.9339 27.1137 60.0324 26.5515C59.031 25.8677 58.125 24.9937 57.4257 24.1273C56.0442 22.2118 56.0619 20.2519 56.2815 18.4338C55.4403 18.4368 54.6492 18.269 54.003 17.8022C53.9967 17.7962 53.9904 17.7899 53.9841 17.7836C52.9806 17.0105 52.6578 15.7357 52.887 14.5885C52.9671 14.1876 53.1057 13.7943 53.2902 13.409C52.7499 13.5362 52.1982 13.5976 51.6585 13.6133C50.2605 13.6539 48.9129 13.4012 47.9922 12.5452C47.55 11.9995 47.3829 11.2271 47.4012 10.6319C47.4258 9.99807 47.5839 9.34264 47.8515 8.69997C48.3867 7.41463 49.3419 6.14349 50.7585 5.5792C50.9838 5.5083 51.225 5.44278 51.4242 5.39343L48.9675 4.72474C48.5454 4.61752 48.2415 4.17168 48.2985 3.74405C48.3558 3.31644 48.7662 2.9642 49.2018 2.96932C50.3739 3.20859 51.573 3.58113 52.7463 3.8981C53.1261 3.99958 53.4135 4.37236 53.4123 4.7619V5.38417C53.5833 5.41932 53.7531 5.4615 53.9184 5.51422L54.1905 3.91669L51.6681 3.23866C51.2463 3.13148 50.9451 2.68176 51.0021 2.25414C51.141 1.66526 51.6072 1.43138 52.1463 1.5204V1.52042ZM63.999 4.14891C63.0456 4.11391 61.8525 4.49171 60.6513 5.68143C59.2863 7.29879 58.4721 8.91089 58.3134 10.1158C60.6123 7.47696 62.0064 6.29439 63.5301 5.3192C63.945 5.05378 64.47 4.71903 65.0493 4.3811C64.6836 4.25282 64.3173 4.16285 63.999 4.14891ZM69.6816 4.56687C67.7808 4.70389 66.0831 5.80637 64.5054 6.81455C63.303 7.58409 62.1486 8.43813 60.3606 10.6598C60.8829 10.9929 61.3308 11.5521 61.5423 12.0437C64.233 12.2315 66.4575 11.8237 67.9281 10.1768C68.8338 9.16251 69.7866 8.01809 70.3287 7.00961C70.5999 6.50534 70.7673 6.03571 70.8069 5.67212C70.8417 5.3526 70.7865 5.12441 70.6569 4.90123C70.3941 4.67541 70.1094 4.57309 69.6816 4.56687ZM51.4242 7.2418C50.6688 7.54278 49.9161 8.43732 49.5207 9.38731C49.2909 10.0308 49.095 10.6298 49.305 11.2821C49.6671 11.5675 50.5683 11.8601 51.6024 11.8301C52.6755 11.7989 53.8155 11.459 54.5373 10.9105C55.407 10.065 55.3806 8.92528 54.7344 8.12414C54.0687 7.201 52.5537 6.84183 51.4242 7.2418ZM53.5809 7.71549C54.2175 8.24091 54.1104 9.18408 53.3466 9.81458C52.5828 10.4451 51.4512 10.5257 50.8146 10.0003C50.178 9.47491 50.2758 8.54102 51.0396 7.91055C51.8313 7.407 52.8453 7.12518 53.5809 7.71549ZM61.6173 14.7837C61.4511 15.3571 61.1841 15.9257 60.8109 16.4648C60.0354 17.5848 58.7445 18.1226 57.5007 18.3316C57.4758 18.5177 57.4551 18.6969 57.435 18.8796C58.4187 18.6369 59.418 18.1562 60.2295 17.4864C61.1082 16.761 61.7652 15.8398 62.0205 14.7743C61.8873 14.7524 61.7376 14.7746 61.6173 14.7837ZM63.174 15.0994C62.8419 16.4302 62.0256 17.5582 60.9984 18.406C59.9388 19.2806 58.6491 19.8679 57.36 20.115C57.3603 20.3134 57.3711 20.5131 57.3882 20.7094C58.7136 20.465 60.1044 19.8834 61.2234 19.0375C62.4777 18.0893 63.3795 16.8394 63.5865 15.3688C63.4524 15.2605 63.2991 15.1761 63.174 15.0994ZM64.5429 16.5112C64.0872 17.9131 63.1218 19.0864 61.9455 19.9756C60.6648 20.9436 59.1237 21.5922 57.6132 21.8704C57.6843 22.099 57.7665 22.329 57.8757 22.5577C59.3211 22.3665 60.8997 21.7531 62.2173 20.8394C63.4863 19.9597 64.5072 18.813 64.9932 17.5329C64.8669 17.1587 64.7133 16.8147 64.5429 16.5112ZM65.3868 19.3812C64.7787 20.3291 63.9282 21.1031 62.9019 21.8146C61.5885 22.7252 60.0684 23.3524 58.5789 23.6351C58.7622 23.8528 58.9632 24.0726 59.1792 24.2945C62.1096 23.6991 64.1277 22.6177 65.4618 20.2728C65.4405 19.9514 65.418 19.6885 65.3868 19.3812ZM65.4807 22.2976C64.1508 23.8127 62.3868 24.7261 60.267 25.2698C60.5853 25.5059 60.9435 25.7003 61.2702 25.8642C62.7264 25.8402 64.272 24.8708 65.3682 23.3472C65.4231 23.0126 65.4585 22.6613 65.4807 22.2976Z" fill="white"/>
<path d="M22.8537 1.52042L19.553 2.41206C19.1304 2.52857 18.8351 2.98643 18.9059 3.41516L19.4123 6.44303C18.8238 6.94637 18.3772 7.65934 18.1745 8.33779C17.6484 6.74047 16.6797 5.47328 15.6239 4.42754C14.291 3.10732 12.8084 2.4782 11.451 2.38419C10.1425 2.29357 8.95283 2.70206 8.14085 3.45229C7.23542 3.08008 6.16352 2.77933 5.29955 2.78356C4.50065 2.79519 3.65903 3.05331 3.02087 3.66594C2.56183 4.30206 2.34634 5.19395 2.41135 5.86718C2.48651 6.55857 2.73666 7.21224 3.07712 7.84554C3.75809 9.11207 4.7924 10.3158 5.72153 11.3564C7.28225 13.1044 9.43307 13.7602 11.7417 13.8548C11.0979 14.0908 10.5315 14.4741 10.0726 14.9879C9.08921 16.089 8.55245 17.6913 8.39402 19.5577C8.33591 21.1302 8.25713 22.7565 8.55344 24.0995C8.84696 25.3714 9.44468 26.5188 10.5133 27.1274C10.78 27.8649 11.1783 28.3393 11.9855 28.5391C11.8011 28.1738 11.7369 27.8085 11.7792 27.4432C12.9794 27.5027 14.066 27.1137 14.9675 26.5515C15.969 25.8677 16.8749 24.9937 17.5743 24.1273C18.9558 22.2118 18.938 20.2519 18.7184 18.4338C19.5598 18.4368 20.3507 18.269 20.997 17.8022C21.0034 17.7962 21.0096 17.7899 21.0158 17.7836C22.0195 17.0105 22.3421 15.7357 22.1129 14.5885C22.0329 14.1876 21.8942 13.7943 21.7097 13.409C22.2502 13.5362 22.8017 13.5976 23.3414 13.6133C24.7395 13.6539 26.0871 13.4012 27.0079 12.5452C27.4498 11.9995 27.617 11.2271 27.5986 10.6319C27.5741 9.99807 27.4161 9.34264 27.1485 8.69997C26.6133 7.41463 25.658 6.14349 24.2416 5.5792C24.0161 5.5083 23.7749 5.44278 23.5758 5.39343L26.0326 4.72474C26.4545 4.61752 26.7585 4.17168 26.7014 3.74405C26.6443 3.31644 26.2337 2.9642 25.7982 2.96932C24.6259 3.20859 23.427 3.58113 22.2536 3.8981C21.8739 3.99958 21.5866 4.37236 21.5878 4.7619V5.38417C21.4166 5.41932 21.247 5.4615 21.0814 5.51422L20.8095 3.91669L23.332 3.23866C23.7538 3.13148 24.0549 2.68176 23.9978 2.25414C23.8591 1.66526 23.3927 1.43138 22.8537 1.5204V1.52042ZM11.0009 4.14891C11.9545 4.11391 13.1475 4.49171 14.3486 5.68143C15.7137 7.29879 16.5278 8.91089 16.6865 10.1158C14.3877 7.47696 12.9936 6.29439 11.4698 5.3192C11.0551 5.05378 10.5301 4.71903 9.95066 4.3811C10.3163 4.25282 10.6828 4.16285 11.0009 4.14891ZM5.3183 4.56687C7.21916 4.70389 8.91698 5.80637 10.4945 6.81455C11.697 7.58409 12.8513 8.43813 14.6393 10.6598C14.1171 10.9929 13.669 11.5521 13.4577 12.0437C10.7671 12.2315 8.54234 11.8237 7.07183 10.1768C6.16619 9.16251 5.21348 8.01809 4.67126 7.00961C4.40015 6.50534 4.23254 6.03571 4.19303 5.67212C4.15829 5.3526 4.21361 5.12441 4.34306 4.90123C4.60592 4.67541 4.89056 4.57309 5.3183 4.56687ZM23.5758 7.2418C24.3312 7.54278 25.0838 8.43732 25.4794 9.38731C25.709 10.0308 25.905 10.6298 25.695 11.2821C25.3328 11.5675 24.4316 11.8601 23.3976 11.8301C22.3243 11.7989 21.1844 11.459 20.4625 10.9105C19.593 10.065 19.6193 8.92528 20.2656 8.12414C20.9311 7.201 22.4461 6.84183 23.5758 7.2418ZM21.419 7.71549C20.7825 8.24091 20.8896 9.18408 21.6534 9.81458C22.4173 10.4451 23.5488 10.5257 24.1853 10.0003C24.8219 9.47491 24.7241 8.54102 23.9603 7.91055C23.1686 7.407 22.1547 7.12518 21.419 7.71549ZM13.3827 14.7837C13.5489 15.3571 13.8159 15.9257 14.1892 16.4648C14.9647 17.5848 16.2556 18.1226 17.4993 18.3316C17.5243 18.5177 17.5448 18.6969 17.565 18.8796C16.5813 18.6369 15.582 18.1562 14.7705 17.4864C13.8917 16.761 13.2349 15.8398 12.9795 14.7743C13.1128 14.7524 13.2624 14.7746 13.3827 14.7837ZM11.8261 15.0994C12.1581 16.4302 12.9745 17.5582 14.0016 18.406C15.0613 19.2806 16.351 19.8679 17.64 20.115C17.6397 20.3134 17.6289 20.5131 17.6119 20.7094C16.2864 20.465 14.8956 19.8834 13.7766 19.0375C12.5222 18.0893 11.6206 16.8394 11.4135 15.3688C11.5475 15.2605 11.7009 15.1761 11.8261 15.0994ZM10.457 16.5112C10.9127 17.9131 11.878 19.0864 13.0545 19.9756C14.3351 20.9436 15.8762 21.5922 17.3868 21.8704C17.3157 22.099 17.2334 22.329 17.1243 22.5577C15.6788 22.3665 14.1003 21.7531 12.7826 20.8394C11.5138 19.9597 10.4928 18.813 10.0069 17.5329C10.133 17.1587 10.2867 16.8147 10.457 16.5112ZM9.61307 19.3812C10.2211 20.3291 11.0718 21.1031 12.098 21.8146C13.4114 22.7252 14.9316 23.3524 16.4209 23.6351C16.2378 23.8528 16.0368 24.0726 15.8208 24.2945C12.8902 23.6991 10.8722 22.6177 9.53807 20.2728C9.55964 19.9514 9.58211 19.6885 9.61307 19.3812ZM9.51929 22.2976C10.8491 23.8127 12.6133 24.7261 14.733 25.2698C14.4146 25.5059 14.0566 25.7003 13.7297 25.8642C12.2735 25.8402 10.728 24.8708 9.63182 23.3472C9.5768 23.0126 9.54146 22.6613 9.51929 22.2976Z" fill="white"/>
<path d="M37.4733 8.48926C49.215 8.48926 58.7781 18.0123 58.7781 29.7699C58.7781 41.5806 49.215 51.1036 37.4733 51.1036C25.732 51.1036 16.222 41.5274 16.222 29.7699C16.222 18.0123 25.732 8.48926 37.4733 8.48926ZM38.3766 49.2949C37.5267 49.8801 36.5172 50.1994 35.5077 50.3589C39.5985 50.7314 43.7427 49.8801 47.3553 47.9115C47.196 47.9115 47.0898 47.8583 46.9302 47.8583C44.1678 48.7097 41.2455 49.1353 38.3766 49.2949ZM25.5195 46.5816C25.4132 45.4643 25.9976 44.1876 26.5289 43.2299C24.51 38.9205 23.3412 36.4201 23.0755 35.8881C21.2692 35.0367 19.7284 33.9195 18.5596 32.2703C18.0283 32.9086 17.6564 33.7068 17.4439 34.5579C18.5596 39.3993 21.4286 43.6555 25.5195 46.5816ZM23.7131 35.6751C24.0319 36.3138 25.1476 38.8141 27.1133 42.964C29.7166 43.6024 32.3199 44.1344 34.9233 44.4534C36.5172 42.6978 37.9515 40.7827 39.2268 38.7078C38.0046 36.4201 36.942 34.0259 35.9859 31.6319C33.2232 31.2062 30.4605 30.7276 27.6978 30.1421C26.4227 32.0044 25.0413 33.8132 23.7131 35.6751ZM39.8112 39.0803C38.5359 41.1017 37.1016 43.0703 35.4546 44.8259L38.4297 48.6565C41.2455 48.4967 44.0613 48.0713 46.7178 47.2199C48.3648 45.5707 49.8525 43.7619 50.9682 41.687C49.6398 40.6229 48.5772 38.9736 47.7804 37.5374C45.2835 38.5483 42.4674 38.9205 39.8112 39.0803ZM48.2586 37.0585C49.0023 38.4416 50.118 40.1975 51.3933 41.2081C53.0934 40.357 54.5808 39.2398 55.8561 37.8564C57.078 34.6114 57.5562 31.685 57.2904 29.0251C56.5467 27.7482 55.5903 26.5246 54.4215 25.567C52.8276 26.8438 51.1275 28.0674 49.4274 29.2379C49.2681 31.7914 48.9492 34.6114 48.2586 37.0585ZM27.804 29.5039C30.5667 30.089 33.3294 30.5678 36.039 30.9935C37.5798 28.759 39.4392 26.8438 41.5644 25.1945C40.8738 22.7473 40.236 20.1936 39.5985 17.6399C36.9954 17.2143 34.392 16.7887 31.8417 16.3631C29.6635 18.3315 27.5915 20.4596 25.732 22.7473C26.4758 24.9817 27.1665 27.2162 27.804 29.5039ZM17.1783 33.2811C17.4439 32.6959 17.8158 32.1107 18.294 31.6319C17.9752 28.493 18.294 26.5778 19.2503 23.5985C19.0378 22.6409 18.9847 21.6832 18.9847 20.7256C17.072 24.6093 16.4345 29.0251 17.1783 33.2811ZM19.6753 19.3956C19.5691 20.6192 19.5691 21.8961 19.8347 23.1197C21.5348 22.3216 23.3943 21.8961 25.2538 22.3216C27.1133 20.034 29.1853 17.9059 31.3104 15.9375C30.8856 14.6606 30.9387 13.0646 30.9918 11.7345C29.451 11.7345 27.8571 12.0538 26.3695 12.4262C23.6068 14.1818 21.3223 16.5759 19.6753 19.3956ZM40.236 17.4803C40.8738 20.034 41.5113 22.5877 42.2019 25.0881C44.5926 25.7798 47.4084 26.8438 49.1616 28.6526C50.862 27.4822 52.509 26.3118 54.1026 25.0349C53.784 22.428 53.04 19.9276 51.7119 17.6931C49.5336 16.1503 47.2491 14.9798 44.7522 14.1818C43.2114 15.1926 41.6706 16.3099 40.236 17.4803ZM57.9279 28.9186C58.1406 30.5678 58.0341 32.3234 57.6624 34.1857C58.1406 32.1107 58.2999 28.6526 57.9279 26.631C57.9279 27.1098 57.981 28.493 57.9279 28.9186ZM44.9115 13.5434C47.3553 14.3414 49.6929 15.5119 51.8712 17.0015C52.1901 16.5759 52.6683 16.4163 53.1996 16.4163C50.3307 13.0646 46.5054 10.6705 42.2019 9.71289C41.6175 9.71289 41.1393 9.7661 40.7142 9.87247C42.4143 10.7237 43.7958 12.0006 44.9115 13.5434ZM31.1511 11.0961C33.7014 9.92567 36.8889 8.96805 39.8643 9.50008C39.9705 9.44688 40.0767 9.39368 40.236 9.34047C36.1452 8.75524 31.8948 9.50008 28.1759 11.3621C29.1853 11.2025 30.1416 11.0961 31.1511 11.0961Z" fill="white"/>
<path d="M5.937 60.8634C5.937 63.5692 6.084 65.7279 6.378 67.3403C5.93001 67.5085 5.454 67.5926 4.95 67.5926C4.446 67.5926 4.005 67.4313 3.627 67.1089C3.26301 66.7866 3.081 66.345 3.081 65.7841C3.081 65.2094 3.15099 64.1298 3.291 62.5457C3.43101 60.9616 3.501 59.7347 3.501 58.8656C3.501 56.7207 3.354 54.653 3.06 52.6621C4.09599 52.7463 5.48901 52.7883 7.239 52.7883C8.98899 52.7883 10.662 52.6621 12.258 52.4098C12.426 52.7183 12.51 53.0896 12.51 53.5243C12.51 53.9449 12.342 54.3234 12.006 54.6599C11.684 54.9822 11.278 55.1435 10.788 55.1435C10.312 55.1435 9.54201 55.0735 8.478 54.9332C7.428 54.793 6.651 54.723 6.147 54.723C6.03501 56.2512 5.96499 57.6529 5.937 58.9287C6.74901 59.0128 7.64499 59.0549 8.625 59.0549C9.61899 59.0549 10.48 58.9077 11.208 58.6133C11.376 58.9218 11.46 59.2931 11.46 59.7278C11.46 60.1484 11.292 60.5338 10.956 60.8844C10.634 61.2209 10.249 61.3891 9.80099 61.3891C9.353 61.3891 8.709 61.305 7.869 61.1368C7.029 60.9544 6.38499 60.8634 5.937 60.8634ZM15.114 67.8449C13.574 67.8449 12.44 67.3964 11.712 66.4991C10.984 65.588 10.62 64.3262 10.62 62.7139C10.62 61.0878 11.103 59.6789 12.069 58.4871C13.035 57.2954 14.274 56.6997 15.786 56.6997C18.894 56.6997 20.448 58.452 20.448 61.9569C20.448 63.5971 19.944 64.9919 18.936 66.1416C17.928 67.2772 16.654 67.8449 15.114 67.8449ZM13.602 59.0128C13.35 59.8261 13.224 60.639 13.224 61.4522C13.224 62.2654 13.252 62.8963 13.308 63.3448C13.364 63.7933 13.469 64.2421 13.623 64.6906C13.945 65.6018 14.575 66.0575 15.513 66.0575C16.465 66.0575 17.088 65.8052 17.382 65.3005C17.69 64.7958 17.844 64.0177 17.844 62.9663C17.844 59.9802 17.137 58.4871 15.723 58.4871C14.911 58.4871 14.204 58.6623 13.602 59.0128ZM23.8216 67.8449C22.2816 67.8449 21.1476 67.3964 20.4196 66.4991C19.6916 65.588 19.3276 64.3262 19.3276 62.7139C19.3276 61.0878 19.8106 59.6789 20.7766 58.4871C21.7426 57.2954 22.9816 56.6997 24.4936 56.6997C27.6016 56.6997 29.1556 58.452 29.1556 61.9569C29.1556 63.5971 28.6516 64.9919 27.6436 66.1416C26.6356 67.2772 25.3616 67.8449 23.8216 67.8449ZM22.3096 59.0128C22.0576 59.8261 21.9316 60.639 21.9316 61.4522C21.9316 62.2654 21.9596 62.8963 22.0156 63.3448C22.0716 63.7933 22.1766 64.2421 22.3306 64.6906C22.6526 65.6018 23.2826 66.0575 24.2206 66.0575C25.1726 66.0575 25.7956 65.8052 26.0896 65.3005C26.3976 64.7958 26.5516 64.0177 26.5516 62.9663C26.5516 59.9802 25.8446 58.4871 24.4306 58.4871C23.6186 58.4871 22.9116 58.6623 22.3096 59.0128ZM29.5262 53.8608C29.9742 53.6364 30.4293 53.5243 30.8913 53.5243C31.3533 53.5243 31.7241 53.6715 32.0043 53.9659C32.2983 54.2603 32.4453 54.695 32.4453 55.2697C32.4453 55.8444 32.4102 56.4963 32.3403 57.2254C33.3903 57.2254 34.3911 57.0782 35.3433 56.7838C35.5113 57.0641 35.5953 57.3936 35.5953 57.7721C35.5953 58.1365 35.4273 58.4382 35.0913 58.6764C34.7691 58.9008 34.4403 59.0128 34.1043 59.0128C33.7683 59.0128 33.3903 58.9708 32.9703 58.8867C32.5503 58.8026 32.2773 58.7536 32.1513 58.7395C32.1372 58.8656 32.0952 59.118 32.0253 59.4965C31.9692 59.875 31.9203 60.2046 31.8783 60.4849C31.7661 61.256 31.7103 62.0831 31.7103 62.9663C31.7103 64.8868 32.3331 65.8472 33.5793 65.8472C34.0413 65.8472 34.5732 65.6859 35.1753 65.3635C35.3571 65.63 35.4483 65.9734 35.4483 66.394C35.4483 66.8145 35.2173 67.1441 34.7553 67.3823C34.3071 67.6067 33.7683 67.7188 33.1383 67.7188C30.6741 67.7188 29.4422 66.3168 29.4422 63.513C29.4422 63.1066 29.4982 62.3705 29.6102 61.305C29.7362 60.2394 29.7992 59.3772 29.7992 58.7184C29.1272 58.7605 28.5882 58.8798 28.1822 59.0759C28.0142 58.8236 27.9302 58.5361 27.9302 58.2137C27.9302 57.8773 28.0492 57.6039 28.2872 57.3936C28.5252 57.1692 28.8192 57.0572 29.1692 57.0572C29.5192 57.0572 29.7502 57.0641 29.8622 57.0782C29.8762 56.9661 29.8832 56.8189 29.8832 56.6366C29.8832 55.5851 29.7642 54.6599 29.5262 53.8608ZM35.1234 64.1018L35.3334 61.0737C35.3334 59.7137 35.1375 58.424 34.7454 57.2044C35.1375 57.0361 35.6205 56.952 36.1944 56.952C37.3143 56.952 37.8744 57.576 37.8744 58.8236C37.8744 59.3844 37.7973 60.1763 37.6434 61.1998C37.4895 62.2233 37.4124 62.9311 37.4124 63.3237C37.4124 63.7023 37.4193 63.9826 37.4334 64.1649C37.4475 64.3331 37.4823 64.5365 37.5384 64.7747C37.6224 65.2515 37.8954 65.4897 38.3574 65.4897C38.8335 65.4897 39.3375 65.1181 39.8694 64.3752C40.4154 63.6182 40.8495 62.7839 41.1714 61.8728C41.5074 60.9616 41.6754 60.2394 41.6754 59.7068C41.6055 58.5992 41.4864 57.7652 41.3184 57.2044C41.7663 57.0361 42.2214 56.952 42.6834 56.952C43.1595 56.952 43.5513 57.0992 43.8594 57.3936C44.1813 57.688 44.3424 58.0807 44.3424 58.5712C44.3424 66.2257 42.9423 70.8169 40.1424 72.3451C39.5124 72.6816 38.7984 72.8498 38.0004 72.8498C37.2024 72.8498 36.5025 72.6395 35.9004 72.2189C35.3124 71.7984 35.0184 71.2096 35.0184 70.4525C35.0184 69.9478 35.2074 69.5203 35.5854 69.1698C35.9634 68.8333 36.4113 68.6651 36.9294 68.6651C37.0413 68.6651 37.1814 68.6792 37.3494 68.7071C37.3074 68.8895 37.2864 69.0505 37.2864 69.1908C37.2864 70.4246 37.7133 71.0413 38.5674 71.0413C39.0855 71.0413 39.5544 70.761 39.9744 70.2002C40.3944 69.6393 40.7304 68.9526 40.9824 68.1394C41.4723 66.485 41.7174 64.985 41.7174 63.6392C41.2974 64.7747 40.7235 65.6931 39.9954 66.394C39.2814 67.081 38.5044 67.4244 37.6644 67.4244C35.9703 67.4244 35.1234 66.3168 35.1234 64.1018ZM44.6733 53.3351C46.6893 52.8024 48.4464 52.536 49.9443 52.536C53.1504 52.536 54.7533 53.6505 54.7533 55.8795C54.7533 57.2395 54.1164 58.2768 52.8423 58.9918C53.6964 59.2021 54.4032 59.6086 54.9633 60.2115C55.5234 60.8003 55.8033 61.5432 55.8033 62.4405C55.8033 64.1228 55.1802 65.4266 53.9343 66.3519C52.6884 67.263 51.1482 67.7188 49.3143 67.7188C47.4804 67.7188 45.8913 67.3544 44.5473 66.6253C44.9814 65.1112 45.1983 63.0714 45.1983 60.5059C45.1983 57.9263 45.0234 55.5362 44.6733 53.3351ZM47.8443 65.4477C48.4602 65.6438 49.0764 65.7421 49.6923 65.7421C50.6583 65.7421 51.4563 65.5038 52.0863 65.0271C52.7163 64.5365 53.0313 63.8495 53.0313 62.9663C53.0313 61.284 52.1214 60.4428 50.3013 60.4428C49.4334 60.4428 48.5514 60.6252 47.6553 60.9896C47.6553 62.4054 47.7183 63.8915 47.8443 65.4477ZM47.6343 59.139C47.8302 59.097 48.1173 59.048 48.4953 58.9918C48.8874 58.9356 49.1883 58.8867 49.3983 58.8446C49.6083 58.8026 49.8672 58.7395 50.1753 58.6553C50.4972 58.5712 50.7423 58.473 50.9103 58.3609C51.0924 58.2348 51.2742 58.0807 51.4563 57.8983C51.8064 57.5477 51.9813 57.0361 51.9813 56.3632C51.9813 55.0594 51.2043 54.4075 49.6503 54.4075C49.1463 54.4075 48.5304 54.4916 47.8023 54.6599C47.6904 57.5339 47.6343 59.027 47.6343 59.139ZM57.5199 62.8191C57.5199 63.8284 57.681 64.6275 58.0029 65.2163C58.3248 65.791 58.8639 66.0785 59.6199 66.0785C60.3759 66.0785 60.9639 65.8262 61.3839 65.3215C61.818 64.8027 62.0349 64.179 62.0349 63.4499C62.511 63.4499 62.9238 63.5692 63.2739 63.8074C63.624 64.0456 63.7989 64.3752 63.7989 64.7958C63.7989 65.6649 63.3369 66.394 62.4129 66.9828C61.4889 67.5575 60.516 67.8449 59.4939 67.8449C57.8979 67.8449 56.7429 67.4175 56.0289 66.5622C55.3149 65.6931 54.9579 64.4103 54.9579 62.7139C54.9579 61.0175 55.434 59.5947 56.3859 58.4451C57.3519 57.2816 58.6329 56.6997 60.2289 56.6997C61.3209 56.6997 62.196 56.952 62.8539 57.4567C63.5259 57.9473 63.8619 58.7184 63.8619 59.7699C63.8619 60.8072 63.3858 61.5925 62.4339 62.1251C61.4958 62.6439 60.348 62.9032 58.9899 62.9032C58.5138 62.9032 58.0239 62.8752 57.5199 62.8191ZM57.5409 61.1578C57.9609 61.2419 58.4019 61.284 58.8639 61.284C59.8719 61.284 60.7188 61.0947 61.4049 60.7162C61.4889 60.3797 61.5309 60.1132 61.5309 59.9171C61.5309 59.4265 61.356 59.0549 61.0059 58.8026C60.6558 58.5502 60.1728 58.424 59.5569 58.424C58.9548 58.424 58.4088 58.6202 57.9189 59.0128C57.6669 59.7419 57.5409 60.4569 57.5409 61.1578ZM65.6328 62.8191C65.6328 63.8284 65.7939 64.6275 66.1158 65.2163C66.4377 65.791 66.9768 66.0785 67.7328 66.0785C68.4888 66.0785 69.0768 65.8262 69.4968 65.3215C69.9309 64.8027 70.1478 64.179 70.1478 63.4499C70.6239 63.4499 71.0367 63.5692 71.3868 63.8074C71.7369 64.0456 71.9118 64.3752 71.9118 64.7958C71.9118 65.6649 71.4498 66.394 70.5258 66.9828C69.6018 67.5575 68.6289 67.8449 67.6068 67.8449C66.0108 67.8449 64.8558 67.4175 64.1418 66.5622C63.4278 65.6931 63.0708 64.4103 63.0708 62.7139C63.0708 61.0175 63.5469 59.5947 64.4988 58.4451C65.4648 57.2816 66.7458 56.6997 68.3418 56.6997C69.4338 56.6997 70.3089 56.952 70.9668 57.4567C71.6388 57.9473 71.9748 58.7184 71.9748 59.7699C71.9748 60.8072 71.4987 61.5925 70.5468 62.1251C69.6087 62.6439 68.4609 62.9032 67.1028 62.9032C66.6267 62.9032 66.1368 62.8752 65.6328 62.8191ZM65.6538 61.1578C66.0738 61.2419 66.5148 61.284 66.9768 61.284C67.9848 61.284 68.8317 61.0947 69.5178 60.7162C69.6018 60.3797 69.6438 60.1132 69.6438 59.9171C69.6438 59.4265 69.4689 59.0549 69.1188 58.8026C68.7687 58.5502 68.2857 58.424 67.6698 58.424C67.0677 58.424 66.5217 58.6202 66.0318 59.0128C65.7798 59.7419 65.6538 60.4569 65.6538 61.1578Z" fill="white"/>
</svg>
