<svg width="200" height="200" viewBox="0 0 200 200" fill="none" xmlns="http://www.w3.org/2000/svg">
<circle cx="100" cy="100" r="96" fill="#001242" stroke="white" stroke-width="8"/>
<path d="M53.263 61.996L76.051 62.32C87.859 62.32 96.499 61.888 101.971 61.024C102.763 62.536 103.159 64.264 103.159 66.208C103.159 68.152 102.295 69.916 100.567 71.5C98.839 73.012 96.751 73.768 94.303 73.768L81.883 72.364C81.883 72.868 81.703 75.1 81.343 79.06C80.335 88.78 79.831 98.536 79.831 108.328C79.831 118.12 80.587 127.912 82.099 137.704C79.723 138.568 77.239 139 74.647 139C72.055 139 69.823 138.28 67.951 136.84C66.079 135.328 65.143 133.096 65.143 130.144C65.143 127.12 65.503 121.828 66.223 114.268C66.943 106.708 67.303 99.364 67.303 92.236C67.303 85.036 66.943 78.34 66.223 72.148C57.511 72.58 50.707 73.804 45.811 75.82C44.947 74.164 44.515 72.328 44.515 70.312C44.515 68.224 45.343 66.316 46.999 64.588C48.655 62.86 50.743 61.996 53.263 61.996ZM94.4928 65.776C104.861 63.04 113.897 61.672 121.601 61.672C138.089 61.672 146.333 67.396 146.333 78.844C146.333 85.828 143.057 91.156 136.505 94.828C140.897 95.908 144.533 97.996 147.413 101.092C150.293 104.116 151.733 107.932 151.733 112.54C151.733 121.18 148.529 127.876 142.121 132.628C135.713 137.308 127.793 139.648 118.361 139.648C108.929 139.648 100.757 137.776 93.8448 134.032C96.0768 126.256 97.1928 115.78 97.1928 102.604C97.1928 89.356 96.2928 77.08 94.4928 65.776ZM110.801 127.984C113.969 128.992 117.137 129.496 120.305 129.496C125.273 129.496 129.377 128.272 132.617 125.824C135.857 123.304 137.477 119.776 137.477 115.24C137.477 106.6 132.797 102.28 123.437 102.28C118.973 102.28 114.437 103.216 109.829 105.088C109.829 112.36 110.153 119.992 110.801 127.984ZM109.721 95.584C110.729 95.368 112.205 95.116 114.149 94.828C116.165 94.54 117.713 94.288 118.793 94.072C119.873 93.856 121.205 93.532 122.789 93.1C124.445 92.668 125.705 92.164 126.569 91.588C127.505 90.94 128.441 90.148 129.377 89.212C131.177 87.412 132.077 84.784 132.077 81.328C132.077 74.632 128.081 71.284 120.089 71.284C117.497 71.284 114.329 71.716 110.585 72.58C110.009 87.34 109.721 95.008 109.721 95.584Z" fill="white"/>
</svg>
